:SAMPLES-PER-SECOND 30
:FULLY-SPECIFIED
:DEGREES
34
root  -9.75859 40.099 -0.337896 178.073 -80.4259 -167.538
RightUpLeg  -20.0586 -2.26282 -0.153611
RightLeg  13.0272 -14.87 -1.00303
RightFoot  -1.93056 -0.317747 3.66407
RightToes  -3.13006e-008 1.75238e-005 3.56266e-009
Spine  25.5699 2.09895 1.26553
Spine1  6.14934 1.88833 1.59208
HEad  -23.097 -2.77619 2.11126
LeftShoulder1  2.16251 -5.29249 -17.99
LeftArm  -39.1849 -31.0999 -39.3806
LeftForeArm  96.4443 -40.5191 -4.89369
LeftHand  -0.711385 -4.44564 8.67604
RightShoulder  2.82592 7.06948 20.3722
RightArm  -23.617 32.0891 27.3085
RightForeArm  46.7027 33.3303 4.76678
RightHand  -0.803881 5.86118 -8.59855
LeftUpLeg  -24.3792 10.6511 5.57512
LeftLeg  10.7983 7.70758 -0.432573
LeftFoot  5.27029 0.261329 -2.00969
LeftToes  4.78512e-008 1.47396e-008 1.32451e-009
35
root  -9.78436 40.1273 -0.458727 178.849 -80.9867 -168.364
RightUpLeg  -19.9585 -2.47549 -0.221411
RightLeg  13.1173 -15.1159 -1.1028
RightFoot  -1.87228 -0.298761 3.45298
RightToes  -3.13006e-008 1.75238e-005 3.56266e-009
Spine  25.5812 1.78705 1.28755
Spine1  6.1551 1.61989 1.33449
HEad  -22.6958 -1.87071 1.54276
LeftShoulder1  2.03884 -4.88284 -17.6951
LeftArm  -39.4496 -29.9396 -38.9658
LeftForeArm  95.9048 -40.1767 -4.81354
LeftHand  -0.72551 -4.36235 8.91002
RightShoulder  2.85924 7.02587 20.8282
RightArm  -24.969 30.9543 26.7607
RightForeArm  46.3227 33.207 4.75727
RightHand  -0.802698 5.49887 -8.84952
LeftUpLeg  -23.8522 8.94061 5.96977
LeftLeg  9.88061 8.92645 -0.456524
LeftFoot  5.80025 0.283861 -2.11766
LeftToes  4.78512e-008 1.47396e-008 1.32451e-009
36
root  -9.80172 40.1478 -0.566065 179.86 -81.2879 -169.518
RightUpLeg  -19.8269 -2.6796 -0.220673
RightLeg  13.2695 -15.1914 -1.25629
RightFoot  -1.90203 -0.268405 3.09215
RightToes  -3.13006e-008 1.75238e-005 3.56266e-009
Spine  25.6322 1.69357 1.12252
Spine1  6.05834 1.50669 1.29266
HEad  -22.0996 -1.08174 0.750001
LeftShoulder1  1.98667 -4.69131 -17.6222
LeftArm  -38.0695 -29.6739 -40.4933
LeftForeArm  96.1165 -40.3697 -4.85952
LeftHand  -0.754177 -4.464 9.16424
RightShoulder  2.90759 7.11833 21.0658
RightArm  -24.2118 30.8033 27.9115
RightForeArm  46.6423 33.9432 4.91647
RightHand  -0.817002 5.78564 -8.78739
LeftUpLeg  -23.3232 7.7447 6.23743
LeftLeg  9.16927 9.85146 -0.480786
LeftFoot  6.19655 0.304035 -2.21584
LeftToes  4.78512e-008 1.47396e-008 1.32451e-009
37
root  -9.81944 40.1578 -0.661181 -179.265 -81.5065 -170.487
RightUpLeg  -19.84 -2.86299 -0.132248
RightLeg  13.5651 -15.2315 -1.52043
RightFoot  -1.93404 -0.239608 2.75064
RightToes  -3.13006e-008 1.75238e-005 3.56266e-009
Spine  25.509 1.63766 1.23666
Spine1  6.00069 1.58126 0.885962
HEad  -21.3837 -0.498735 -0.0903437
LeftShoulder1  2.07593 -5.01823 -17.739
LeftArm  -35.405 -30.476 -43.3555
LeftForeArm  95.9014 -40.4566 -4.88379
LeftHand  -0.787719 -4.20233 9.79646
RightShoulder  2.97769 7.06326 21.9219
RightArm  -21.1576 31.9928 29.8438
RightForeArm  46.2401 34.8882 5.16524
RightHand  -0.856818 5.6131 -9.32855
LeftUpLeg  -22.9937 7.16698 6.37019
LeftLeg  8.72722 10.243 -0.571603
LeftFoot  6.47624 0.314813 -2.25998
LeftToes  4.78512e-008 1.47396e-008 1.32451e-009
38
root  -9.82679 40.1654 -0.732674 -179.144 -81.7629 -170.883
RightUpLeg  -19.6021 -2.9235 -0.0643011
RightLeg  13.785 -15.4214 -1.75177
RightFoot  -1.95387 -0.219166 2.5078
RightToes  -3.13006e-008 1.75238e-005 3.56266e-009
Spine  25.2727 1.72049 1.01561
Spine1  6.41669 1.5179 1.3528
HEad  -21.0866 -0.145533 -0.915026
LeftShoulder1  2.25491 -5.41924 -18.7387
LeftArm  -31.135 -32.0933 -46.6033
LeftForeArm  95.669 -40.9062 -4.99926
LeftHand  -0.82956 -4.42187 10.0855
RightShoulder  3.13114 7.51344 22.1797
RightArm  -17.5268 33.7667 33.5051
RightForeArm  47.7926 35.7842 5.30765
RightHand  -0.923797 6.21172 -9.54571
LeftUpLeg  -22.6002 6.79014 6.46517
LeftLeg  8.48406 10.379 -0.579741
LeftFoot  6.63564 0.331825 -2.35336
LeftToes  4.78512e-008 1.47396e-008 1.32451e-009
39
root  -9.80775 40.159 -0.796108 -178.771 -82.0264 -171.427
RightUpLeg  -19.5812 -3.15603 -0.00283504
RightLeg  14.1045 -15.4558 -1.95119
RightFoot  -2.0615 -0.21669 2.48067
RightToes  -3.13006e-008 1.75238e-005 3.56266e-009
Spine  25.4447 1.68706 1.01476
Spine1  6.24291 1.51599 1.2324
HEad  -20.7764 0.218452 -1.24104
LeftShoulder1  2.34321 -5.7261 -18.8578
LeftArm  -25.9011 -33.9505 -51.7307
LeftForeArm  95.8491 -40.9605 -5.0113
LeftHand  -0.843717 -4.39091 10.2827
RightShoulder  3.21545 7.80882 22.1811
RightArm  -12.6206 35.5414 38.854
RightForeArm  49.0034 36.8038 5.50225
RightHand  -0.922917 6.20926 -9.53715
LeftUpLeg  -22.4321 6.59685 6.47092
LeftLeg  8.33404 10.3676 -0.623427
LeftFoot  6.80515 0.340995 -2.39504
LeftToes  4.78512e-008 1.47396e-008 1.32451e-009
40
root  -9.77204 40.147 -0.845405 -177.753 -82.1162 -172.551
RightUpLeg  -19.7377 -3.65676 0.0823706
RightLeg  14.4983 -15.0291 -2.11068
RightFoot  -2.20006 -0.202489 2.27337
RightToes  -3.13006e-008 1.75238e-005 3.56266e-009
Spine  25.4763 1.68027 1.18584
Spine1  6.35547 1.68743 0.726908
HEad  -20.4242 0.353264 -1.7047
LeftShoulder1  2.51895 -6.19486 -19.4883
LeftArm  -18.9506 -36.3328 -56.3068
LeftForeArm  95.6562 -40.4959 -4.89611
LeftHand  -0.884287 -4.36482 10.788
RightShoulder  3.26992 8.06076 22.0208
RightArm  -6.58739 37.3772 44.7596
RightForeArm  50.0982 37.7829 5.69925
RightHand  -0.886737 5.96418 -9.36433
LeftUpLeg  -22.2717 6.45085 6.48339
LeftLeg  8.10861 10.4989 -0.793076
LeftFoot  6.94932 0.342684 -2.39167
LeftToes  4.78512e-008 1.47396e-008 1.32451e-009
41
root  -9.73468 40.1374 -0.892696 -176.848 -82.0944 -173.549
RightUpLeg  -19.8872 -3.92637 0.179275
RightLeg  14.8561 -14.6649 -2.33855
RightFoot  -2.33072 -0.20816 2.38003
RightToes  -3.13006e-008 1.75238e-005 3.56266e-009
Spine  25.6895 1.85836 1.03807
Spine1  6.14953 1.87267 0.712691
HEad  -19.9488 0.308635 -2.26811
LeftShoulder1  2.71474 -6.80884 -19.875
LeftArm  -11.8365 -38.0791 -61.0314
LeftForeArm  95.531 -40.0523 -4.78663
LeftHand  -0.943977 -4.84665 10.9766
RightShoulder  3.3945 8.53253 21.9421
RightArm  -0.23844 38.649 50.2998
RightForeArm  50.7955 38.9383 5.9679
RightHand  -0.918894 6.03381 -9.63496
LeftUpLeg  -22.1311 6.29453 6.52721
LeftLeg  7.94278 10.7136 -0.880375
LeftFoot  7.06139 0.357275 -2.47127
LeftToes  4.78512e-008 1.47396e-008 1.32451e-009
42
root  -9.68825 40.1183 -0.920665 -176.736 -82.2609 -173.615
RightUpLeg  -20.1475 -4.23857 0.307056
RightLeg  15.1638 -14.4877 -2.46248
RightFoot  -2.4524 -0.201471 2.29684
RightToes  -3.13006e-008 1.75238e-005 3.56266e-009
Spine  25.7847 1.83695 1.13177
Spine1  6.02516 1.90781 0.560732
HEad  -19.4909 0.1906 -2.46267
LeftShoulder1  2.87287 -7.447 -19.7716
LeftArm  -6.89886 -39.2112 -65.4485
LeftForeArm  96.0459 -39.8478 -4.7309
LeftHand  -1.01784 -5.25396 11.3818
RightShoulder  3.58133 9.20745 21.9033
RightArm  4.99499 39.6559 55.0732
RightForeArm  51.7702 39.8294 6.15935
RightHand  -0.961836 6.25573 -9.88614
LeftUpLeg  -22.3128 6.22495 6.51895
LeftLeg  7.9971 10.5998 -0.836527
LeftFoot  7.09569 0.372934 -2.56435
LeftToes  4.78512e-008 1.47396e-008 1.32451e-009
43
root  -9.63314 40.1026 -0.941379 -176.917 -82.1871 -173.356
RightUpLeg  -20.3716 -4.15087 0.426658
RightLeg  15.2598 -14.4871 -2.52616
RightFoot  -2.41883 -0.192455 2.17571
RightToes  -3.13006e-008 1.75238e-005 3.56266e-009
Spine  25.9046 1.90466 1.04472
Spine1  5.90929 1.9619 0.556948
HEad  -19.2696 0.24401 -3.00686
LeftShoulder1  2.97235 -7.67535 -20.1546
LeftArm  -3.83337 -40.2081 -68.2303
LeftForeArm  96.005 -39.6358 -4.67931
LeftHand  -1.03394 -5.35116 11.4556
RightShoulder  3.78258 9.71583 22.3708
RightArm  8.65669 40.3384 58.2699
RightForeArm  52.3809 40.7624 6.38693
RightHand  -1.01745 6.55939 -10.188
LeftUpLeg  -22.5058 6.39547 6.5823
LeftLeg  8.09128 10.5288 -0.835942
LeftFoot  7.09951 0.394439 -2.69642
LeftToes  4.78512e-008 1.47396e-008 1.32451e-009
44
root  -9.5748 40.0878 -0.950362 -177.034 -82.0954 -173.224
RightUpLeg  -20.5073 -3.95994 0.474801
RightLeg  15.3193 -14.5409 -2.58719
RightFoot  -2.45648 -0.191646 2.17635
RightToes  -3.13006e-008 1.75238e-005 3.56266e-009
Spine  25.8384 2.05016 0.805558
Spine1  6.03532 1.99211 0.844652
HEad  -18.9521 0.151537 -3.41572
LeftShoulder1  2.98055 -7.68116 -20.2182
LeftArm  -3.19259 -40.429 -69.0719
LeftForeArm  95.9858 -40.3501 -4.85626
LeftHand  -1.01445 -5.21189 11.3842
RightShoulder  3.88484 9.95189 22.6429
RightArm  9.78293 40.5167 59.8418
RightForeArm  53.0294 41.6979 6.61912
RightHand  -1.03484 6.69888 -10.2416
LeftUpLeg  -22.663 6.47465 6.58791
LeftLeg  8.21446 10.5271 -0.750539
LeftFoot  7.11496 0.386373 -2.64504
LeftToes  4.78512e-008 1.47396e-008 1.32451e-009
45
root  -9.53237 40.0881 -0.937151 -177.913 -82.0448 -172.396
RightUpLeg  -20.4444 -3.80526 0.519117
RightLeg  15.1705 -14.6715 -2.49182
RightFoot  -2.32657 -0.19236 2.1913
RightToes  -3.13006e-008 1.75238e-005 3.56266e-009
Spine  25.7373 2.02041 1.02641
Spine1  6.08019 2.06392 0.599242
HEad  -18.2439 0.114797 -3.65315
LeftShoulder1  2.91348 -7.57443 -19.8401
LeftArm  -4.81473 -40.3677 -67.8296
LeftForeArm  95.2078 -40.8683 -4.99457
LeftHand  -0.941839 -4.64413 11.1658
RightShoulder  3.89873 9.92388 22.8179
RightArm  7.94342 40.2957 59.0652
RightForeArm  52.8918 42.0662 6.73389
RightHand  -1.07797 6.79364 -10.5728
LeftUpLeg  -22.6922 6.41861 6.67835
LeftLeg  8.26604 10.5934 -0.627079
LeftFoot  7.14548 0.395726 -2.69922
LeftToes  4.78512e-008 1.47396e-008 1.32451e-009
46
root  -9.48271 40.0887 -0.911058 -178.148 -81.8671 -172.184
RightUpLeg  -20.4222 -3.35352 0.481031
RightLeg  14.9944 -14.9385 -2.52552
RightFoot  -2.16759 -0.197709 2.26512
RightToes  -3.13006e-008 1.75238e-005 3.56266e-009
Spine  25.6166 2.05097 1.1282
Spine1  6.06059 2.18949 0.298604
HEad  -17.5768 -0.0441247 -3.73746
LeftShoulder1  2.76583 -7.1865 -19.3863
LeftArm  -9.08108 -39.8733 -65.3703
LeftForeArm  94.8839 -41.1173 -5.06203
LeftHand  -0.953794 -4.58771 11.3624
RightShoulder  3.82459 9.55708 23.0815
RightArm  4.07402 40.0721 56.4187
RightForeArm  50.9403 41.4195 6.65057
RightHand  -1.10372 6.67476 -10.9188
LeftUpLeg  -22.6781 6.34188 6.74061
LeftLeg  8.20945 10.8673 -0.567758
LeftFoot  7.15727 0.407067 -2.76761
LeftToes  4.78512e-008 1.47396e-008 1.32451e-009
47
root  -9.4406 40.097 -0.872014 -178.565 -81.6966 -171.842
RightUpLeg  -20.2398 -2.97137 0.420316
RightLeg  14.6378 -15.1423 -2.44186
RightFoot  -2.02643 -0.203772 2.33323
RightToes  -3.13006e-008 1.75238e-005 3.56266e-009
Spine  25.4622 2.22031 0.900098
Spine1  6.06408 2.25248 0.645578
HEad  -16.7909 -0.151757 -3.91887
LeftShoulder1  2.73277 -6.92641 -19.7407
LeftArm  -15.9843 -38.4076 -61.6501
LeftForeArm  94.2928 -41.6963 -5.21802
LeftHand  -0.970166 -4.93742 11.1809
RightShoulder  3.69568 9.19555 22.8899
RightArm  -2.0665 38.9038 52.3177
RightForeArm  48.588 40.725 6.58194
RightHand  -1.10408 5.83479 -11.6973
LeftUpLeg  -22.5221 6.1545 6.86632
LeftLeg  8.02661 11.2238 -0.568051
LeftFoot  7.13122 0.428362 -2.9014
LeftToes  4.78512e-008 1.47396e-008 1.32451e-009
48
root  -9.40454 40.105 -0.805779 -178.192 -81.6627 -172.178
RightUpLeg  -20.2148 -3.02372 0.245527
RightLeg  14.3559 -15.1219 -2.28668
RightFoot  -2.00206 -0.225742 2.59629
RightToes  -3.13006e-008 1.75238e-005 3.56266e-009
Spine  24.9536 2.1772 0.71287
Spine1  6.55393 2.15175 0.725723
HEad  -16.4808 -0.134453 -3.80923
LeftShoulder1  2.64114 -6.47164 -20.0271
LeftArm  -23.537 -37.1178 -57.5901
LeftForeArm  90.821 -41.9034 -5.3213
LeftHand  -0.902727 -4.73672 10.622
RightShoulder  3.50052 8.66663 22.5379
RightArm  -8.21872 38.0702 48.0736
RightForeArm  46.3476 39.5089 6.36133
RightHand  -1.20972 5.52148 -13.131
LeftUpLeg  -22.4856 5.79961 6.83067
LeftLeg  7.79746 11.5794 -0.567534
LeftFoot  7.13757 0.450575 -3.03752
LeftToes  4.78512e-008 1.47396e-008 1.32451e-009
